<?xml version="1.0" encoding="UTF-8" standalone="no"?>
<!-- Created with Inkscape (http://www.inkscape.org/) -->

<svg
   width="400"
   height="400"
   viewBox="0 0 105.83333 105.83333"
   version="1.1"
   id="svg5"
   inkscape:version="1.2.1 (1:1.2.1+202210291244+9c6d41e410)"
   sodipodi:docname="logo.svg"
   xmlns:inkscape="http://www.inkscape.org/namespaces/inkscape"
   xmlns:sodipodi="http://sodipodi.sourceforge.net/DTD/sodipodi-0.dtd"
   xmlns="http://www.w3.org/2000/svg"
   xmlns:svg="http://www.w3.org/2000/svg">
  <sodipodi:namedview
     id="namedview7"
     pagecolor="#505050"
     bordercolor="#eeeeee"
     borderopacity="1"
     inkscape:showpageshadow="0"
     inkscape:pageopacity="0"
     inkscape:pagecheckerboard="0"
     inkscape:deskcolor="#505050"
     inkscape:document-units="mm"
     showgrid="true"
     inkscape:zoom="0.77949635"
     inkscape:cx="-168.69867"
     inkscape:cy="121.23213"
     inkscape:window-width="1876"
     inkscape:window-height="1016"
     inkscape:window-x="1964"
     inkscape:window-y="27"
     inkscape:window-maximized="1"
     inkscape:current-layer="layer1">
    <inkscape:grid
       type="xygrid"
       id="grid793"
       visible="true"
       enabled="true"
       snapvisiblegridlinesonly="true"
       dotted="false"
       empcolor="#0f0f0f"
       empopacity="0.30196078"
       color="#373737"
       opacity="0.14901961" />
  </sodipodi:namedview>
  <defs
     id="defs2" />
  <g
     inkscape:label="Layer 1"
     inkscape:groupmode="layer"
     id="layer1">
    <path
       style="fill:#8a5806;fill-opacity:1;stroke-width:0.362361"
       d="m 38.629586,20.718372 c 46.716823,-3.103192 48.920629,44.944127 48.920629,44.944127 0,0 3.351732,33.65455 -18.521865,35.438821 C 43.726485,103.16526 36.204909,81.10049 32.712566,75.46537 28.067724,67.970626 13.728397,21.63957 38.629586,20.718372 Z"
       id="path847-5"
       sodipodi:nodetypes="ccssc" />
    <path
       style="fill:#aa731a;fill-opacity:1;stroke-width:0.362361"
       d="m 33.638323,22.552918 c 47.715235,-1.640922 48.013175,45.241091 48.013175,45.241091 0,0 3.485851,36.616331 -19.078453,36.641631 C 37.188332,104.46407 29.749604,84.434793 26.257259,78.799672 21.612419,71.304927 8.8100516,23.438834 33.638323,22.552918 Z"
       id="path847"
       sodipodi:nodetypes="ccssc" />
    <path
       style="fill:#077d0c;fill-opacity:1;stroke-width:0.897714"
       d="M 32.877242,22.420171 C 60.628619,1.6080412 76.62267,1.094533 76.62267,1.094533 c 0,0 -0.979835,3.3168476 -5.392726,8.932707 -4.412894,5.615862 -38.352702,12.392931 -38.352702,12.392931 z"
       id="path1726" />
  </g>
</svg>
