<?xml version="1.0" encoding="UTF-8" standalone="no"?>
<!-- Created with Inkscape (http://www.inkscape.org/) -->

<svg
   width="600"
   height="600"
   viewBox="0 0 158.75 158.75"
   version="1.1"
   id="svg5"
   inkscape:version="1.2.1 (1:1.2.1+202210291244+9c6d41e410)"
   sodipodi:docname="logo.svg"
   xmlns:inkscape="http://www.inkscape.org/namespaces/inkscape"
   xmlns:sodipodi="http://sodipodi.sourceforge.net/DTD/sodipodi-0.dtd"
   xmlns="http://www.w3.org/2000/svg"
   xmlns:svg="http://www.w3.org/2000/svg">
  <sodipodi:namedview
     id="namedview7"
     pagecolor="#505050"
     bordercolor="#eeeeee"
     borderopacity="1"
     inkscape:showpageshadow="0"
     inkscape:pageopacity="0"
     inkscape:pagecheckerboard="0"
     inkscape:deskcolor="#505050"
     inkscape:document-units="mm"
     showgrid="true"
     inkscape:zoom="1"
     inkscape:cx="160"
     inkscape:cy="272.5"
     inkscape:window-width="1876"
     inkscape:window-height="1016"
     inkscape:window-x="1964"
     inkscape:window-y="27"
     inkscape:window-maximized="1"
     inkscape:current-layer="layer1">
    <inkscape:grid
       type="xygrid"
       id="grid132" />
  </sodipodi:namedview>
  <defs
     id="defs2" />
  <g
     inkscape:label="Layer 1"
     inkscape:groupmode="layer"
     id="layer1">
    <ellipse
       style="fill:#d45500;stroke-width:0.221652"
       id="path288-6"
       cx="79.772217"
       cy="104.09232"
       rx="53.929852"
       ry="54.165562" />
    <path
       style="fill:#008000;stroke-width:0.334306"
       d="m 79.322362,48.832645 0.07076,-29.59989 c 0,0 -0.150106,-6.334585 6.648313,-8.029743 C 92.839851,9.5078546 128.93893,1.6667766 128.93893,1.6667766 V 30.34563 c 0,0 0.0514,7.398776 -8.18694,9.261098 -6.44957,1.457954 -41.429628,9.225918 -41.429628,9.225917 z"
       id="path912"
       sodipodi:nodetypes="ccsccscc" />
    <path
       style="fill:#008000;stroke-width:0.159541"
       d="m 77.536827,46.063157 -0.03377,-14.125914 c 0,0 0.07163,-3.023045 -3.172766,-3.832023 C 71.085892,27.296243 53.85838,23.554256 53.85838,23.554256 v 13.686369 c 0,0 -0.02455,3.530908 3.907043,4.41966 3.07792,0.695778 19.771402,4.402872 19.771402,4.402872 z"
       id="path912-3"
       sodipodi:nodetypes="ccsccscc" />
  </g>
</svg>
